{
  "accessors": [
    {
      "bufferView": 2,
      "componentType": 5126,
      "count": 17367,
      "max": [
        1.8054499626159668,
        2.031450033187866,
        4.547550201416016
      ],
      "min": [
        -2.3309500217437744,
        -2.2132298946380615,
        -0.0
      ],
      "type": "VEC3"
    },
    {
      "bufferView": 2,
      "byteOffset": 208404,
      "componentType": 5126,
      "count": 17367,
      "max": [
        0.9999983906745911,
        0.9999930262565613,
        0.9998707175254822
      ],
      "min": [
        -0.9999642968177795,
        -0.9999985098838806,
        -0.9999746680259705
      ],
      "type": "VEC3"
    },
    {
      "bufferView": 1,
      "componentType": 5126,
      "count": 17367,
      "max": [
        1.0,
        1.0
      ],
      "min": [
        0.0,
        0.0
      ],
      "type": "VEC2"
    },
    {
      "bufferView": 0,
      "componentType": 5125,
      "count": 73296,
      "type": "SCALAR"
    },
    {
      "bufferView": 2,
      "byteOffset": 416808,
      "componentType": 5126,
      "count": 25284,
      "max": [
        2.1334800720214844,
        2.2633700370788574,
        4.73445987701416
      ],
      "min": [
        -2.4658000469207764,
        -2.4546799659729004,
        0.7683500051498413
      ],
      "type": "VEC3"
    },
    {
      "bufferView": 2,
      "byteOffset": 720216,
      "componentType": 5126,
      "count": 25284,
      "max": [
        0.9951396584510803,
        0.9992860555648804,
        0.9999495148658752
      ],
      "min": [
        -0.9989668726921082,
        -0.9994852542877197,
        -0.4273109436035156
      ],
      "type": "VEC3"
    },
    {
      "bufferView": 1,
      "byteOffset": 138936,
      "componentType": 5126,
      "count": 25284,
      "max": [
        0.675599992275238,
        0.9944000244140625
      ],
      "min": [
        0.29361000657081604,
        0.047600001096725464
      ],
      "type": "VEC2"
    },
    {
      "bufferView": 0,
      "byteOffset": 293184,
      "componentType": 5125,
      "count": 45792,
      "type": "SCALAR"
    },
    {
      "bufferView": 2,
      "byteOffset": 1023624,
      "componentType": 5126,
      "count": 7488,
      "max": [
        91.6156997680664,
        91.60045623779297,
        1.0164599418640137
      ],
      "min": [
        -91.41015625,
        -92.1507797241211,
        -1.0443099737167358
      ],
      "type": "VEC3"
    },
    {
      "bufferView": 2,
      "byteOffset": 1113480,
      "componentType": 5126,
      "count": 7488,
      "max": [
        0.7730318903923035,
        0.419272243976593,
        0.9999967813491821
      ],
      "min": [
        -0.44940102100372314,
        -0.9199596047401428,
        0.3475698232650757
      ],
      "type": "VEC3"
    },
    {
      "bufferView": 1,
      "byteOffset": 341208,
      "componentType": 5126,
      "count": 7488,
      "max": [
        0.9998999834060669,
        0.9998999834060669
      ],
      "min": [
        9.999999747378752e-05,
        9.999999747378752e-05
      ],
      "type": "VEC2"
    },
    {
      "bufferView": 0,
      "byteOffset": 476352,
      "componentType": 5125,
      "count": 7488,
      "type": "SCALAR"
    },
    {
      "bufferView": 2,
      "byteOffset": 1203336,
      "componentType": 5126,
      "count": 13442,
      "max": [
        105.19790649414063,
        105.1978988647461,
        198.8416290283203
      ],
      "min": [
        -105.19790649414063,
        -105.19790649414063,
        0.2720000147819519
      ],
      "type": "VEC3"
    },
    {
      "bufferView": 2,
      "byteOffset": 1364640,
      "componentType": 5126,
      "count": 13442,
      "max": [
        0.9998682141304016,
        0.9998682141304016,
        1.0
      ],
      "min": [
        -0.9998682141304016,
        -0.9998682141304016,
        -1.0
      ],
      "type": "VEC3"
    },
    {
      "bufferView": 0,
      "byteOffset": 506304,
      "componentType": 5125,
      "count": 76800,
      "type": "SCALAR"
    },
    {
      "bufferView": 2,
      "byteOffset": 1525944,
      "componentType": 5126,
      "count": 4480,
      "max": [
        105.03759765625,
        105.03759765625,
        186.36363220214844
      ],
      "min": [
        -105.03759765625,
        -105.03759765625,
        48.13167190551758
      ],
      "type": "VEC3"
    },
    {
      "bufferView": 2,
      "byteOffset": 1579704,
      "componentType": 5126,
      "count": 4480,
      "max": [
        0.9968714118003845,
        0.9968714118003845,
        1.0
      ],
      "min": [
        -0.9968714118003845,
        -0.9968714118003845,
        -1.0
      ],
      "type": "VEC3"
    },
    {
      "bufferView": 0,
      "byteOffset": 813504,
      "componentType": 5125,
      "count": 15360,
      "type": "SCALAR"
    }
  ],
  "asset": {
    "extras": {
      "author": "Ronald Hessens (https://sketchfab.com/r.hessens)",
      "license": "CC-BY-4.0 (http://creativecommons.org/licenses/by/4.0/)",
      "source": "https://sketchfab.com/3d-models/flowerpot-0ead7a2453da47c3a39b550fb283314f",
      "title": "Flowerpot"
    },
    "generator": "Sketchfab-12.68.0",
    "version": "2.0"
  },
  "bufferViews": [
    {
      "buffer": 0,
      "byteLength": 874944,
      "name": "floatBufferViews",
      "target": 34963
    },
    {
      "buffer": 0,
      "byteLength": 401112,
      "byteOffset": 874944,
      "byteStride": 8,
      "name": "floatBufferViews",
      "target": 34962
    },
    {
      "buffer": 0,
      "byteLength": 1633464,
      "byteOffset": 1276056,
      "byteStride": 12,
      "name": "floatBufferViews",
      "target": 34962
    }
  ],
  "buffers": [
    {
      "byteLength": 2909520,
      "uri": "scene.bin"
    }
  ],
  "images": [
    {
      "uri": "textures/Material.005_baseColor.jpeg"
    },
    {
      "uri": "textures/Material.011_baseColor.jpeg"
    },
    {
      "uri": "textures/Material.012_baseColor.png"
    }
  ],
  "materials": [
    {
      "doubleSided": true,
      "name": "Material.010",
      "pbrMetallicRoughness": {
        "baseColorFactor": [
          0.0,
          0.0,
          0.0,
          1.0
        ],
        "metallicFactor": 0.0,
        "roughnessFactor": 0.3518125057220459
      }
    },
    {
      "doubleSided": true,
      "name": "Material.009",
      "pbrMetallicRoughness": {
        "roughnessFactor": 0.0199999996
      }
    },
    {
      "doubleSided": true,
      "name": "Material.005",
      "pbrMetallicRoughness": {
        "baseColorTexture": {
          "index": 0
        },
        "metallicFactor": 0.0
      }
    },
    {
      "doubleSided": true,
      "name": "Material.011",
      "pbrMetallicRoughness": {
        "baseColorFactor": [
          0.901812505722046,
          0.901812505722046,
          0.901812505722046,
          1.0
        ],
        "baseColorTexture": {
          "index": 1
        },
        "metallicFactor": 0.0
      }
    },
    {
      "doubleSided": true,
      "name": "Material.012",
      "pbrMetallicRoughness": {
        "baseColorTexture": {
          "index": 2
        },
        "metallicFactor": 0.0,
        "roughnessFactor": 0.45806250572204593
      }
    }
  ],
  "meshes": [
    {
      "name": "tree.003_0",
      "primitives": [
        {
          "attributes": {
            "NORMAL": 1,
            "POSITION": 0,
            "TEXCOORD_0": 2
          },
          "indices": 3,
          "material": 3,
          "mode": 4
        }
      ]
    },
    {
      "name": "leaves.001_0",
      "primitives": [
        {
          "attributes": {
            "NORMAL": 5,
            "POSITION": 4,
            "TEXCOORD_0": 6
          },
          "indices": 7,
          "material": 4,
          "mode": 4
        }
      ]
    },
    {
      "name": "Cylinder.006_0",
      "primitives": [
        {
          "attributes": {
            "NORMAL": 9,
            "POSITION": 8,
            "TEXCOORD_0": 10
          },
          "indices": 11,
          "material": 2,
          "mode": 4
        }
      ]
    },
    {
      "name": "Cylinder.002_0",
      "primitives": [
        {
          "attributes": {
            "NORMAL": 13,
            "POSITION": 12
          },
          "indices": 14,
          "material": 0,
          "mode": 4
        }
      ]
    },
    {
      "name": "Cylinder.002_1",
      "primitives": [
        {
          "attributes": {
            "NORMAL": 16,
            "POSITION": 15
          },
          "indices": 17,
          "material": 1,
          "mode": 4
        }
      ]
    }
  ],
  "nodes": [
    {
      "children": [
        1
      ],
      "matrix": [
        1.0,
        0.0,
        0.0,
        0.0,
        0.0,
        2.220446049250313e-16,
        -1.0,
        0.0,
        0.0,
        1.0,
        2.220446049250313e-16,
        0.0,
        0.0,
        0.0,
        0.0,
        1.0
      ],
      "name": "Sketchfab_model"
    },
    {
      "children": [
        2,
        6,
        8
      ],
      "name": "Root"
    },
    {
      "children": [
        3,
        4
      ],
      "matrix": [
        91.14155000000001,
        0.0,
        0.0,
        0.0,
        0.0,
        91.14155000000001,
        0.0,
        0.0,
        0.0,
        0.0,
        91.14155000000001,
        0.0,
        0.0,
        0.0,
        146.02023000000003,
        1.0
      ],
      "name": "tree.003"
    },
    {
      "mesh": 0,
      "name": "tree.003_0"
    },
    {
      "children": [
        5
      ],
      "name": "leaves.001"
    },
    {
      "mesh": 1,
      "name": "leaves.001_0"
    },
    {
      "children": [
        7
      ],
      "matrix": [
        -0.99863,
        0.05234000000000001,
        0.0,
        0.0,
        -0.05234000000000001,
        -0.99863,
        0.0,
        0.0,
        0.0,
        0.0,
        1.0,
        0.0,
        -0.0,
        3.000000000000001e-05,
        176.38017000000002,
        1.0
      ],
      "name": "Cylinder.006"
    },
    {
      "mesh": 2,
      "name": "Cylinder.006_0"
    },
    {
      "children": [
        9,
        10
      ],
      "name": "Cylinder.002"
    },
    {
      "mesh": 3,
      "name": "Cylinder.002_0"
    },
    {
      "mesh": 4,
      "name": "Cylinder.002_1"
    }
  ],
  "samplers": [
    {
      "magFilter": 9729,
      "minFilter": 9987,
      "wrapS": 10497,
      "wrapT": 10497
    }
  ],
  "scene": 0,
  "scenes": [
    {
      "name": "Sketchfab_Scene",
      "nodes": [
        0
      ]
    }
  ],
  "textures": [
    {
      "sampler": 0,
      "source": 0
    },
    {
      "sampler": 0,
      "source": 1
    },
    {
      "sampler": 0,
      "source": 2
    }
  ]
}
