{
  "accessors": [
    {
      "bufferView": 2,
      "componentType": 5126,
      "count": 7488,
      "max": [
        92.10830688476563,
        92.11917114257813,
        1.270400047302246
      ],
      "min": [
        -91.91423034667969,
        -91.80774688720703,
        -1.1420600414276123
      ],
      "type": "VEC3"
    },
    {
      "bufferView": 2,
      "byteOffset": 89856,
      "componentType": 5126,
      "count": 7488,
      "max": [
        0.8654503226280212,
        0.722476065158844,
        0.9999955892562866
      ],
      "min": [
        -0.7104483246803284,
        -0.6937963962554932,
        0.2346600890159607
      ],
      "type": "VEC3"
    },
    {
      "bufferView": 1,
      "componentType": 5126,
      "count": 7488,
      "max": [
        0.9998999834060669,
        0.9998999834060669
      ],
      "min": [
        9.999999747378752e-05,
        9.999999747378752e-05
      ],
      "type": "VEC2"
    },
    {
      "bufferView": 0,
      "componentType": 5125,
      "count": 7488,
      "type": "SCALAR"
    },
    {
      "bufferView": 2,
      "byteOffset": 179712,
      "componentType": 5126,
      "count": 10070,
      "max": [
        105.19790649414063,
        105.1978988647461,
        198.8416290283203
      ],
      "min": [
        -105.19790649414063,
        -105.19790649414063,
        0.2720000147819519
      ],
      "type": "VEC3"
    },
    {
      "bufferView": 2,
      "byteOffset": 300552,
      "componentType": 5126,
      "count": 10070,
      "max": [
        0.9998666644096375,
        0.9998666644096375,
        0.9592219591140747
      ],
      "min": [
        -0.9998666644096375,
        -0.9998666644096375,
        -1.0
      ],
      "type": "VEC3"
    },
    {
      "bufferView": 1,
      "byteOffset": 59904,
      "componentType": 5126,
      "count": 10070,
      "max": [
        0.9896399974822998,
        0.9899399876594543
      ],
      "min": [
        0.017890000715851784,
        0.017160000279545784
      ],
      "type": "VEC2"
    },
    {
      "bufferView": 0,
      "byteOffset": 29952,
      "componentType": 5125,
      "count": 52992,
      "type": "SCALAR"
    },
    {
      "bufferView": 2,
      "byteOffset": 421392,
      "componentType": 5126,
      "count": 32312,
      "max": [
        2.49330997467041,
        2.949079990386963,
        6.484389781951904
      ],
      "min": [
        -2.9133501052856445,
        -2.5182199478149414,
        0.0
      ],
      "type": "VEC3"
    },
    {
      "bufferView": 2,
      "byteOffset": 809136,
      "componentType": 5126,
      "count": 32312,
      "max": [
        0.9999915957450867,
        0.9999938607215881,
        0.9997872710227966
      ],
      "min": [
        -0.9999776482582092,
        -0.9999968409538269,
        -0.9995414614677429
      ],
      "type": "VEC3"
    },
    {
      "bufferView": 1,
      "byteOffset": 140464,
      "componentType": 5126,
      "count": 32312,
      "max": [
        1.0,
        1.0
      ],
      "min": [
        0.0,
        0.0
      ],
      "type": "VEC2"
    },
    {
      "bufferView": 0,
      "byteOffset": 241920,
      "componentType": 5125,
      "count": 159408,
      "type": "SCALAR"
    },
    {
      "bufferView": 2,
      "byteOffset": 1196880,
      "componentType": 5126,
      "count": 29814,
      "max": [
        2.75314998626709,
        3.358959913253784,
        7.011380195617676
      ],
      "min": [
        -3.3273398876190186,
        -3.0225698947906494,
        0.6550700068473816
      ],
      "type": "VEC3"
    },
    {
      "bufferView": 2,
      "byteOffset": 1554648,
      "componentType": 5126,
      "count": 29814,
      "max": [
        0.9983605742454529,
        0.9989249110221863,
        0.9999204874038696
      ],
      "min": [
        -0.9988035559654236,
        -0.9994721412658691,
        -0.7034512758255005
      ],
      "type": "VEC3"
    },
    {
      "bufferView": 1,
      "byteOffset": 398960,
      "componentType": 5126,
      "count": 29814,
      "max": [
        0.9307399988174438,
        0.8802000284194946
      ],
      "min": [
        0.03020000085234642,
        0.06967999786138535
      ],
      "type": "VEC2"
    },
    {
      "bufferView": 0,
      "byteOffset": 879552,
      "componentType": 5125,
      "count": 57528,
      "type": "SCALAR"
    }
  ],
  "asset": {
    "extras": {
      "author": "Ronald Hessens (https://sketchfab.com/r.hessens)",
      "license": "CC-BY-4.0 (http://creativecommons.org/licenses/by/4.0/)",
      "source": "https://sketchfab.com/3d-models/flowerpot-2-4664b25a0e134ab682e05c23816dc9b6",
      "title": "Flowerpot 2"
    },
    "generator": "Sketchfab-12.68.0",
    "version": "2.0"
  },
  "bufferViews": [
    {
      "buffer": 0,
      "byteLength": 1109664,
      "name": "floatBufferViews",
      "target": 34963
    },
    {
      "buffer": 0,
      "byteLength": 637472,
      "byteOffset": 1109664,
      "byteStride": 8,
      "name": "floatBufferViews",
      "target": 34962
    },
    {
      "buffer": 0,
      "byteLength": 1912416,
      "byteOffset": 1747136,
      "byteStride": 12,
      "name": "floatBufferViews",
      "target": 34962
    }
  ],
  "buffers": [
    {
      "byteLength": 3659552,
      "uri": "scene.bin"
    }
  ],
  "images": [
    {
      "uri": "textures/Material.001_baseColor.jpeg"
    },
    {
      "uri": "textures/Material.002_baseColor.jpeg"
    },
    {
      "uri": "textures/Material.003_baseColor.png"
    },
    {
      "uri": "textures/Material.006_baseColor.jpeg"
    }
  ],
  "materials": [
    {
      "doubleSided": true,
      "name": "Material.001",
      "pbrMetallicRoughness": {
        "baseColorTexture": {
          "index": 0
        },
        "metallicFactor": 0.0,
        "roughnessFactor": 0.6
      }
    },
    {
      "doubleSided": true,
      "name": "Material.002",
      "pbrMetallicRoughness": {
        "baseColorTexture": {
          "index": 1
        },
        "metallicFactor": 0.0,
        "roughnessFactor": 0.6
      }
    },
    {
      "doubleSided": true,
      "emissiveFactor": [
        0.1999999881,
        0.1999999881,
        0.1999999881
      ],
      "emissiveTexture": {
        "index": 2
      },
      "name": "Material.003",
      "pbrMetallicRoughness": {
        "baseColorTexture": {
          "index": 2
        },
        "metallicFactor": 0.0,
        "roughnessFactor": 0.6
      }
    },
    {
      "doubleSided": true,
      "name": "Material.006",
      "pbrMetallicRoughness": {
        "baseColorTexture": {
          "index": 3
        },
        "metallicFactor": 0.0,
        "roughnessFactor": 0.6
      }
    }
  ],
  "meshes": [
    {
      "name": "Cylinder.004_0",
      "primitives": [
        {
          "attributes": {
            "NORMAL": 1,
            "POSITION": 0,
            "TEXCOORD_0": 2
          },
          "indices": 3,
          "material": 3,
          "mode": 4
        }
      ]
    },
    {
      "name": "Cylinder_0",
      "primitives": [
        {
          "attributes": {
            "NORMAL": 5,
            "POSITION": 4,
            "TEXCOORD_0": 6
          },
          "indices": 7,
          "material": 2,
          "mode": 4
        }
      ]
    },
    {
      "name": "tree_0",
      "primitives": [
        {
          "attributes": {
            "NORMAL": 9,
            "POSITION": 8,
            "TEXCOORD_0": 10
          },
          "indices": 11,
          "material": 0,
          "mode": 4
        }
      ]
    },
    {
      "name": "leaves_0",
      "primitives": [
        {
          "attributes": {
            "NORMAL": 13,
            "POSITION": 12,
            "TEXCOORD_0": 14
          },
          "indices": 15,
          "material": 1,
          "mode": 4
        }
      ]
    }
  ],
  "nodes": [
    {
      "children": [
        1
      ],
      "matrix": [
        1.0,
        0.0,
        0.0,
        0.0,
        0.0,
        2.220446049250313e-16,
        -1.0,
        0.0,
        0.0,
        1.0,
        2.220446049250313e-16,
        0.0,
        0.0,
        0.0,
        0.0,
        1.0
      ],
      "name": "Sketchfab_model"
    },
    {
      "children": [
        2,
        4,
        6
      ],
      "name": "Root"
    },
    {
      "children": [
        3
      ],
      "matrix": [
        -0.3583700000000001,
        0.93358,
        0.0,
        0.0,
        -0.93358,
        -0.3583700000000001,
        0.0,
        0.0,
        0.0,
        0.0,
        1.0,
        0.0,
        -0.0,
        3.000000000000001e-05,
        176.38017000000002,
        1.0
      ],
      "name": "Cylinder.004"
    },
    {
      "mesh": 0,
      "name": "Cylinder.004_0"
    },
    {
      "children": [
        5
      ],
      "matrix": [
        0.99981,
        -0.019460000000000005,
        0.0,
        0.0,
        0.019460000000000005,
        0.99981,
        0.0,
        0.0,
        0.0,
        0.0,
        1.0,
        0.0,
        0.0,
        0.0,
        0.0,
        1.0
      ],
      "name": "Cylinder"
    },
    {
      "mesh": 1,
      "name": "Cylinder_0"
    },
    {
      "children": [
        7,
        8
      ],
      "matrix": [
        84.72969,
        0.0,
        0.0,
        0.0,
        0.0,
        84.72969,
        0.0,
        0.0,
        0.0,
        0.0,
        84.72969,
        0.0,
        0.0,
        0.0,
        84.80366000000001,
        1.0
      ],
      "name": "tree"
    },
    {
      "mesh": 2,
      "name": "tree_0"
    },
    {
      "children": [
        9
      ],
      "name": "leaves"
    },
    {
      "mesh": 3,
      "name": "leaves_0"
    }
  ],
  "samplers": [
    {
      "magFilter": 9729,
      "minFilter": 9987,
      "wrapS": 10497,
      "wrapT": 10497
    }
  ],
  "scene": 0,
  "scenes": [
    {
      "name": "Sketchfab_Scene",
      "nodes": [
        0
      ]
    }
  ],
  "textures": [
    {
      "sampler": 0,
      "source": 0
    },
    {
      "sampler": 0,
      "source": 1
    },
    {
      "sampler": 0,
      "source": 2
    },
    {
      "sampler": 0,
      "source": 3
    }
  ]
}
